<svg width="100" height="100" viewBox="0 0 100 100" fill="none" xmlns="http://www.w3.org/2000/svg">
<rect width="100" height="100" fill="white"/>
<path d="M67.747 61.0525L57.0611 71.7972C55.4885 73.3784 54.2188 74.6551 53.1166 75.6691C54.8759 77.2877 56.2082 78.237 57.664 78.6873C59.5748 79.2784 61.6182 79.2784 63.529 78.6873C65.8968 77.9549 67.9381 75.9023 72.0208 71.7972L82.7067 61.0525C86.7894 56.9474 88.8307 54.8949 89.5591 52.514C90.147 50.5927 90.147 48.5381 89.5591 46.6168C88.8307 44.236 86.7894 42.1834 82.7067 38.0783L72.0208 27.3336C67.9381 23.2285 65.8968 21.176 63.529 20.4435C61.6182 19.8525 59.5748 19.8525 57.664 20.4435C56.2082 20.8939 54.8759 21.8432 53.1167 23.4617C54.2188 24.4757 55.4885 25.7524 57.0611 27.3336L67.747 38.0783C71.8297 42.1834 73.871 44.236 74.5994 46.6168C75.1873 48.5381 75.1873 50.5927 74.5994 52.514C73.871 54.8949 71.8297 56.9474 67.747 61.0525Z" fill="#2D3036"/>
<path d="M61.5137 61.0523C65.5964 56.9472 67.6377 54.8946 68.3662 52.5138C68.954 50.5925 68.954 48.5379 68.3662 46.6166C67.6377 44.2357 65.5964 42.1832 61.5137 38.0781L50.8278 27.3334C46.7452 23.2283 44.7038 21.1757 42.336 20.4433C40.4252 19.8522 38.3818 19.8522 36.471 20.4433C34.1032 21.1757 32.0619 23.2283 27.9792 27.3334L17.2933 38.0781C13.2106 42.1832 11.1693 44.2357 10.4409 46.6166C9.85304 48.5379 9.85304 50.5925 10.4409 52.5138C11.1693 54.8946 13.2106 56.9472 17.2933 61.0523L27.9792 71.797C32.0619 75.9021 34.1032 77.9546 36.471 78.6871C38.3818 79.2781 40.4252 79.2781 42.336 78.6871C44.7038 77.9546 46.7452 75.9021 50.8278 71.797L61.5137 61.0523Z" fill="#2D3036"/>
</svg>
