<svg width="124" height="20" viewBox="0 0 124 20" fill="none" xmlns="http://www.w3.org/2000/svg">
<path d="M8.93853 3.3335L1 10.0002L8.93853 16.6668M41 10.0002H1.76508" stroke="#BB484A" stroke-width="2" stroke-miterlimit="10" stroke-linecap="round" stroke-linejoin="round"/>
<path d="M69.384 11.716C69.384 13.0647 69.027 14.1527 68.313 14.98C67.599 15.8073 66.6923 16.221 65.593 16.221C64.4257 16.221 63.536 15.8187 62.924 15.014V19.06H61.054V7.466H62.788V8.673C63.4113 7.70967 64.352 7.228 65.61 7.228C66.7093 7.228 67.6103 7.64167 68.313 8.469C69.027 9.29633 69.384 10.3787 69.384 11.716ZM66.851 13.824C67.2703 13.2913 67.48 12.5887 67.48 11.716C67.48 10.8433 67.276 10.1463 66.868 9.625C66.46 9.09233 65.9103 8.826 65.219 8.826C64.505 8.826 63.927 9.09233 63.485 9.625C63.0543 10.1463 62.839 10.8433 62.839 11.716C62.839 12.6 63.06 13.3027 63.502 13.824C63.944 14.3453 64.5163 14.606 65.219 14.606C65.899 14.606 66.443 14.3453 66.851 13.824ZM78.2395 10.169V16H76.5565V15.031C75.9899 15.8583 75.0492 16.272 73.7345 16.272C72.8165 16.272 72.0742 16.068 71.5075 15.66C70.9522 15.252 70.6745 14.6513 70.6745 13.858C70.6745 12.9627 71.0089 12.2997 71.6775 11.869C72.3689 11.4157 73.3095 11.0813 74.4995 10.866L76.4545 10.509V10.203C76.4545 9.73833 76.2959 9.38133 75.9785 9.132C75.6612 8.87133 75.2305 8.741 74.6865 8.741C74.1652 8.741 73.7062 8.84867 73.3095 9.064C72.9242 9.268 72.4709 9.63067 71.9495 10.152L70.7765 9.064C71.8192 7.81733 73.1055 7.194 74.6355 7.194C75.7802 7.194 76.6642 7.46033 77.2875 7.993C77.9222 8.52567 78.2395 9.251 78.2395 10.169ZM76.4545 12.651V11.869L74.9755 12.175C74.0802 12.3677 73.4455 12.5773 73.0715 12.804C72.6975 13.0193 72.5105 13.3367 72.5105 13.756C72.5105 14.0733 72.6409 14.3227 72.9015 14.504C73.1735 14.6853 73.5419 14.776 74.0065 14.776C74.7205 14.776 75.3042 14.589 75.7575 14.215C76.2222 13.8297 76.4545 13.3083 76.4545 12.651ZM87.7744 16H85.9044V12.328H82.2324V16H80.3624V7.466H82.2324V10.798H85.9044V7.466H87.7744V16ZM96.5031 13.399L97.5911 14.538C96.9905 15.15 96.3898 15.592 95.7891 15.864C95.1998 16.1247 94.5425 16.255 93.8171 16.255C92.4685 16.255 91.4031 15.8527 90.6211 15.048C89.8391 14.232 89.4481 13.144 89.4481 11.784C89.4481 10.4353 89.8278 9.336 90.5871 8.486C91.3578 7.62467 92.3778 7.194 93.6471 7.194C94.8938 7.194 95.8571 7.568 96.5371 8.316C97.2285 9.05267 97.5741 10.0783 97.5741 11.393C97.5741 11.6083 97.5628 11.8633 97.5401 12.158H91.2841C91.3521 12.9287 91.6071 13.5407 92.0491 13.994C92.4911 14.4473 93.0918 14.674 93.8511 14.674C94.3385 14.674 94.7635 14.5833 95.1261 14.402C95.4888 14.2207 95.9478 13.8863 96.5031 13.399ZM91.3351 10.798H95.7381C95.7041 10.1407 95.5001 9.625 95.1261 9.251C94.7521 8.86567 94.2421 8.673 93.5961 8.673C92.9955 8.673 92.4968 8.86 92.1001 9.234C91.7148 9.59667 91.4598 10.118 91.3351 10.798ZM105.833 13.399L106.921 14.538C106.321 15.15 105.72 15.592 105.119 15.864C104.53 16.1247 103.873 16.255 103.147 16.255C101.799 16.255 100.733 15.8527 99.9512 15.048C99.1692 14.232 98.7782 13.144 98.7782 11.784C98.7782 10.4353 99.1579 9.336 99.9172 8.486C100.688 7.62467 101.708 7.194 102.977 7.194C104.224 7.194 105.187 7.568 105.867 8.316C106.559 9.05267 106.904 10.0783 106.904 11.393C106.904 11.6083 106.893 11.8633 106.87 12.158H100.614C100.682 12.9287 100.937 13.5407 101.379 13.994C101.821 14.4473 102.422 14.674 103.181 14.674C103.669 14.674 104.094 14.5833 104.456 14.402C104.819 14.2207 105.278 13.8863 105.833 13.399ZM100.665 10.798H105.068C105.034 10.1407 104.83 9.625 104.456 9.251C104.082 8.86567 103.572 8.673 102.926 8.673C102.326 8.673 101.827 8.86 101.43 9.234C101.045 9.59667 100.79 10.118 100.665 10.798ZM114.324 13.824V16H112.216V13.824H114.324ZM118.242 13.824V16H116.134V13.824H118.242ZM122.16 13.824V16H120.052V13.824H122.16Z" fill="#BB484A"/>
</svg>
