<svg width="200" height="47" viewBox="0 0 200 47" fill="none" xmlns="http://www.w3.org/2000/svg">
<path d="M11.5544 4.50403C12.0585 1.68145 13.7621 0.270155 16.6653 0.270155C15.2742 7.16532 14.246 14 13.5806 20.7742C20.2339 20.9355 23.5605 21.248 23.5605 21.7117C23.5605 21.9133 22.8649 22.1552 21.4738 22.4375C17.5827 23.2439 14.8105 23.7379 13.1573 23.9194C12.6532 29.4234 12.4012 33.6976 12.4012 36.7419C12.4819 41.621 12.5423 44.6048 12.5827 45.6935C12.5625 46.1976 12.4819 46.4496 12.3407 46.4496C11.9577 46.4496 11.2722 45.0988 10.2843 42.3972C9.31653 39.6754 8.83266 35.5121 8.83266 29.9073C8.83266 28.1935 8.90323 26.3589 9.04436 24.4032L1.24194 25.8851C0.657258 25.8851 0.354839 25.7641 0.334677 25.5222C0.334677 24.8972 0.546371 24.131 0.969758 23.2238C1.37298 22.3165 1.74597 21.8629 2.08871 21.8629C4.64919 21.2379 7.08871 20.9254 9.40726 20.9254C10.3548 12.8004 11.0706 7.32661 11.5544 4.50403ZM22.3206 23.3145C22.4214 22.6694 22.8952 22.3468 23.7419 22.3468C25.6573 22.3468 26.6149 24.4032 26.6149 28.5161C28.994 25.4113 31.4032 23.8185 33.8427 23.7379C35.375 23.7379 36.2823 23.9395 36.5645 24.3427C36.8669 24.746 37.0181 25.0685 37.0181 25.3105C37.0181 25.8347 36.0605 26.3689 34.1452 26.9133C32.2298 27.4577 30.5262 28.7782 29.0343 30.875C27.5423 32.9718 26.7561 35.3508 26.6754 38.0121C26.5948 40.6734 26.3024 42.2157 25.7984 42.6391C25.2944 43.0625 24.7097 43.2742 24.0444 43.2742C23.2984 43.2742 22.9254 42.3669 22.9254 40.5524C22.9254 39.2419 22.996 37.9919 23.1371 36.8024C23.2782 35.6129 23.3488 34.4435 23.3488 33.2944C23.3488 30.0685 23.1774 27.7298 22.8347 26.2782C22.4919 24.8064 22.3206 23.8185 22.3206 23.3145ZM43.9436 22.5282C45.2742 22.5282 45.9395 22.9012 45.9395 23.6472C45.9395 24.6754 45.5766 26.0766 44.8508 27.8508C44.1452 29.625 43.752 31.9738 43.6714 34.8972C43.8528 38.869 45.0927 40.8548 47.3911 40.8548C49.4274 40.8548 51.2117 38.7177 52.744 34.4435C54.2762 30.1694 55.6573 27.9516 56.8871 27.7903C58.4597 27.7903 59.246 29.0605 59.246 31.6008C59.246 32.5685 59.1553 33.5867 58.9738 34.6552C58.8125 35.7238 58.7319 36.6411 58.7319 37.4073C58.7319 38.0726 58.8024 39.0806 58.9436 40.4315C59.0847 41.7621 59.1553 42.5887 59.1553 42.9113C59.1553 43.6371 58.7117 44 57.8246 44C57.4617 44 57.0182 43.375 56.494 42.125C55.9698 40.8548 55.7077 39.4234 55.7077 37.8306C55.7077 36.4597 55.7984 35.2198 55.9798 34.1109C55.1129 37.5181 53.9234 40.0585 52.4113 41.7319C50.8992 43.3851 49.1956 44.2117 47.3004 44.2117C45.3044 44.2117 43.6008 43.5363 42.1895 42.1855C40.7782 40.8347 40.0726 38.3548 40.0726 34.746C40.0726 32.7702 40.496 30.2399 41.3427 27.1552C42.1895 24.0706 43.0565 22.5282 43.9436 22.5282ZM79.2359 3.1129C79.5182 1.84274 80.2036 1.18749 81.2923 1.14717C82.3609 1.18749 82.8952 1.54032 82.8952 2.20564C81.4032 13.496 80.6573 21.1875 80.6573 25.2802C80.7581 34.3125 81.373 40.0988 82.502 42.6391C82.502 43.1835 82.3307 43.4758 81.9879 43.5161C81.6048 43.5161 80.9496 42.75 80.0222 41.2177C79.0948 39.6855 78.5202 37.3266 78.2984 34.1411C77.0887 38.1734 75.4859 40.7944 73.4899 42.004C72.4617 42.7097 71.373 43.0625 70.2238 43.0625C67.744 43.0625 65.879 42.2964 64.629 40.7641C63.379 39.2117 62.754 37.0343 62.754 34.2319C62.754 31.8327 63.2782 29.5141 64.3266 27.2762C65.375 25.0383 66.504 23.5867 67.7137 22.9214C68.9436 22.256 70.1129 21.9234 71.2218 21.9234C73.2782 21.9234 75.1835 22.4677 76.9375 23.5564C77.0786 18.879 77.8448 12.0645 79.2359 3.1129ZM76.5746 25.7944C75.5867 24.9073 74.2863 24.4637 72.6734 24.4637C71.5847 24.4637 70.5565 24.877 69.5887 25.7036C68.621 26.5302 67.8649 28.0323 67.3206 30.2097C66.7762 32.3669 66.504 34.121 66.504 35.4718C66.9879 38.7379 67.9758 40.4113 69.4677 40.4919C70.7782 40.4919 71.877 39.7258 72.7641 38.1935C73.6714 36.621 74.4879 34.8669 75.2137 32.9314C75.9395 30.996 76.3932 28.6169 76.5746 25.7944ZM87.6734 41.9133C87.3508 41.3891 87.1895 39.4738 87.1895 36.1673C87.1895 32.2964 87.2702 29.6048 87.4315 28.0927C87.5928 26.5605 87.754 25.1391 87.9153 23.8286C88.0766 22.5181 88.752 21.8629 89.9415 21.8629C90.9294 21.8629 91.5847 22.3468 91.9073 23.3145C91.5645 26.6008 91.3226 29.2419 91.1815 31.2379C91.0605 33.2339 91 34.8165 91 35.9859C91.2823 35.9859 91.9274 34.7258 92.9355 32.2056C94.871 28.8185 96.9274 27.125 99.1049 27.125C101 27.125 102.411 27.8105 103.339 29.1814C104.266 30.5524 104.81 32.7802 104.972 35.8649C104.972 37.6593 104.861 39.4133 104.639 41.127C104.417 42.8407 104.014 43.7782 103.429 43.9395C102.623 43.9395 102.169 43.4758 102.069 42.5484C102.069 41.8024 102.048 40.8145 102.008 39.5847C101.988 38.3548 101.877 36.631 101.675 34.4133C101.474 32.1754 100.587 30.9556 99.0141 30.754C97.7036 30.754 96.1915 32.75 94.4778 36.7419C92.7641 40.7137 90.9093 42.6996 88.9133 42.6996C88.4093 42.6996 87.996 42.4375 87.6734 41.9133ZM113.198 34.0806C113.823 33.5161 115.587 32.4073 118.49 30.754C121.393 29.0806 122.865 27.4375 122.905 25.8246C122.905 24.8569 122.391 24.373 121.363 24.373C119.286 24.373 117.341 25.3206 115.526 27.2157C113.732 29.0907 112.835 31.6814 112.835 34.9879C112.835 36.8024 113.49 38.2944 114.8 39.4637C116.131 40.6331 117.825 41.2177 119.881 41.2177C122.865 41.0363 125.536 40.1794 127.895 38.6472C128.601 38.1028 129.004 37.8306 129.105 37.8306C129.226 37.8306 129.286 37.9415 129.286 38.1633C129.286 38.3448 128.944 38.8891 128.258 39.7964C127.573 40.7036 126.383 41.6411 124.69 42.6089C123.016 43.5565 120.879 44.0302 118.278 44.0302C115.819 44.0302 113.712 43.3145 111.958 41.8831C110.204 40.4516 109.206 38.254 108.964 35.2903C108.964 31.2581 110.194 28.1028 112.653 25.8246C115.113 23.5464 118.238 22.4073 122.028 22.4073C123.278 22.4073 124.306 22.6996 125.113 23.2843C125.94 23.8488 126.353 24.6855 126.353 25.7944C126.131 27.6089 125.133 29.2419 123.359 30.6935C121.585 32.1452 119.337 33.2843 116.615 34.1109C114.962 34.5141 113.893 34.7157 113.409 34.7157C113.127 34.7157 112.986 34.6452 112.986 34.504C112.986 34.4032 113.056 34.2621 113.198 34.0806ZM139.841 4.50403C140.345 1.68145 142.048 0.270155 144.952 0.270155C143.561 7.16532 142.532 14 141.867 20.7742C148.52 20.9355 151.847 21.248 151.847 21.7117C151.847 21.9133 151.151 22.1552 149.76 22.4375C145.869 23.2439 143.097 23.7379 141.444 23.9194C140.94 29.4234 140.688 33.6976 140.688 36.7419C140.768 41.621 140.829 44.6048 140.869 45.6935C140.849 46.1976 140.768 46.4496 140.627 46.4496C140.244 46.4496 139.558 45.0988 138.571 42.3972C137.603 39.6754 137.119 35.5121 137.119 29.9073C137.119 28.1935 137.19 26.3589 137.331 24.4032L129.528 25.8851C128.944 25.8851 128.641 25.7641 128.621 25.5222C128.621 24.8972 128.833 24.131 129.256 23.2238C129.659 22.3165 130.032 21.8629 130.375 21.8629C132.936 21.2379 135.375 20.9254 137.694 20.9254C138.641 12.8004 139.357 7.32661 139.841 4.50403ZM151.998 40.5222C152.663 39.9173 153.369 39.6149 154.115 39.6149C154.7 39.6149 155.304 39.8266 155.929 40.25C156.554 40.6532 156.867 41.127 156.867 41.6714C156.867 42.2157 156.514 42.8306 155.808 43.5161C155.123 44.2016 154.427 44.5444 153.722 44.5444C153.117 44.5444 152.512 44.2923 151.907 43.7883C151.302 43.2843 151 42.7601 151 42.2157C151 41.6714 151.333 41.1069 151.998 40.5222ZM162.22 23.3145C162.321 22.6694 162.794 22.3468 163.641 22.3468C165.556 22.3468 166.514 24.4032 166.514 28.5161C168.893 25.4113 171.302 23.8185 173.742 23.7379C175.274 23.7379 176.181 23.9395 176.464 24.3427C176.766 24.746 176.917 25.0685 176.917 25.3105C176.917 25.8347 175.96 26.3689 174.044 26.9133C172.129 27.4577 170.425 28.7782 168.933 30.875C167.442 32.9718 166.655 35.3508 166.575 38.0121C166.494 40.6734 166.202 42.2157 165.698 42.6391C165.194 43.0625 164.609 43.2742 163.944 43.2742C163.198 43.2742 162.825 42.3669 162.825 40.5524C162.825 39.2419 162.895 37.9919 163.036 36.8024C163.177 35.6129 163.248 34.4435 163.248 33.2944C163.248 30.0685 163.077 27.7298 162.734 26.2782C162.391 24.8064 162.22 23.8185 162.22 23.3145ZM183.843 22.5282C185.173 22.5282 185.839 22.9012 185.839 23.6472C185.839 24.6754 185.476 26.0766 184.75 27.8508C184.044 29.625 183.651 31.9738 183.571 34.8972C183.752 38.869 184.992 40.8548 187.29 40.8548C189.327 40.8548 191.111 38.7177 192.643 34.4435C194.175 30.1694 195.556 27.9516 196.786 27.7903C198.359 27.7903 199.145 29.0605 199.145 31.6008C199.145 32.5685 199.054 33.5867 198.873 34.6552C198.712 35.7238 198.631 36.6411 198.631 37.4073C198.631 38.0726 198.702 39.0806 198.843 40.4315C198.984 41.7621 199.054 42.5887 199.054 42.9113C199.054 43.6371 198.611 44 197.724 44C197.361 44 196.917 43.375 196.393 42.125C195.869 40.8548 195.607 39.4234 195.607 37.8306C195.607 36.4597 195.698 35.2198 195.879 34.1109C195.012 37.5181 193.823 40.0585 192.311 41.7319C190.798 43.3851 189.095 44.2117 187.2 44.2117C185.204 44.2117 183.5 43.5363 182.089 42.1855C180.677 40.8347 179.972 38.3548 179.972 34.746C179.972 32.7702 180.395 30.2399 181.242 27.1552C182.089 24.0706 182.956 22.5282 183.843 22.5282Z" fill="#2D3036"/>
</svg>
